<svg preserveAspectRatio="none" overflow="visible" style="display: block;" width="9.6195" height="9.63327" viewBox="0 0 9.6195 9.63327" fill="none" xmlns="http://www.w3.org/2000/svg">
<g id="Icon Subcontainer">
<path id="Vector" d="M6.79842 3.83018H0.388481C0.173603 3.83018 0 4.00378 0 4.21866V9.24464C0 9.45952 0.173603 9.63312 0.388481 9.63312H6.79842C7.0133 9.63312 7.1869 9.45952 7.1869 9.24464V4.21866C7.1869 4.00378 7.0133 3.83018 6.79842 3.83018ZM6.26426 8.71048H0.922643V4.75282H6.26426V8.71048Z" fill="white"/>
<path id="Vector_2" d="M8.58741 2.74337C7.63077 1.52087 6.20796 0.878662 4.76815 0.871378L4.76572 0.0944152C4.76572 0.0155049 4.67346 -0.0281993 4.61276 0.0203609L3.05884 1.2465C3.01028 1.28414 3.01149 1.35698 3.05884 1.39583L4.61397 2.62319C4.67589 2.67175 4.76815 2.62804 4.76694 2.54913V1.77338C4.92355 1.7746 5.08137 1.78431 5.23797 1.80373C5.74907 1.86686 6.23467 2.02468 6.68264 2.27355C7.14517 2.53092 7.54701 2.87691 7.87722 3.29696C8.20621 3.71822 8.44416 4.19168 8.58255 4.70277C8.71609 5.19687 8.75251 5.70676 8.6906 6.21785C8.6821 6.28341 8.6736 6.34896 8.66146 6.41331H9.57075C9.75042 5.1556 9.43357 3.82748 8.58741 2.74337Z" fill="white"/>
</g>
</svg>
