<svg preserveAspectRatio="none" overflow="visible" style="display: block;" width="143.786" height="104.503" viewBox="0 0 143.786 104.503" fill="none" xmlns="http://www.w3.org/2000/svg">
<g id="Union">
<path d="M84.3618 42.8707H143.069V103.786H0.717278V42.8707H59.4116L71.8862 2.43315L84.3618 42.8707Z" fill="url(#paint0_linear_0_10)"/>
<path d="M84.3618 42.8707L83.6764 43.0821L83.8325 43.5879H84.3618V42.8707ZM143.069 42.8707H143.786V42.1534H143.069V42.8707ZM143.069 103.786V104.503H143.786V103.786H143.069ZM0.717278 103.786H0V104.503H0.717278V103.786ZM0.717278 42.8707V42.1534H0V42.8707H0.717278ZM59.4116 42.8707V43.5879H59.941L60.097 43.0821L59.4116 42.8707ZM71.8862 2.43315L72.5716 2.2217L71.8862 0L71.2008 2.22171L71.8862 2.43315ZM84.3618 42.8707V43.5879H143.069V42.8707V42.1534H84.3618V42.8707ZM143.069 42.8707H142.352V103.786H143.069H143.786V42.8707H143.069ZM143.069 103.786V103.068H0.717278V103.786V104.503H143.069V103.786ZM0.717278 103.786H1.43456V42.8707H0.717278H0V103.786H0.717278ZM0.717278 42.8707V43.5879H59.4116V42.8707V42.1534H0.717278V42.8707ZM59.4116 42.8707L60.097 43.0821L72.5716 2.6446L71.8862 2.43315L71.2008 2.22171L58.7262 42.6592L59.4116 42.8707ZM71.8862 2.43315L71.2008 2.64461L83.6764 43.0821L84.3618 42.8707L85.0472 42.6592L72.5716 2.2217L71.8862 2.43315Z" fill="#5B4A43"/>
</g>
<defs>
<linearGradient id="paint0_linear_0_10" x1="76.9784" y1="53.3224" x2="95.6288" y2="103.533" gradientUnits="userSpaceOnUse">
<stop stop-color="#F1FFFF"/>
<stop offset="1" stop-color="#FFF9FC"/>
</linearGradient>
</defs>
</svg>
