<svg preserveAspectRatio="none" overflow="visible" style="display: block;" width="137.804" height="16.004" viewBox="0 0 137.804 16.004" fill="none" xmlns="http://www.w3.org/2000/svg">
<g id="kiwi mango cake ( 7.5 )">
<path id="Vector" d="M134.438 15.715C135.207 14.0155 135.703 12.7765 135.925 11.998C136.264 10.8193 136.433 9.43776 136.433 7.85338C136.433 6.26899 136.237 4.81893 135.846 3.50318C135.604 2.6918 135.127 1.52408 134.417 0H135.294C136.039 1.34864 136.489 2.18195 136.644 2.49992C136.803 2.81241 136.975 3.24551 137.159 3.79922C137.391 4.48451 137.555 5.16157 137.652 5.83041C137.753 6.49925 137.804 7.14342 137.804 7.76292C137.804 9.38567 137.577 10.833 137.122 12.1049C136.837 12.9217 136.245 14.1251 135.345 15.715H134.438Z" fill="black"/>
<path id="Vector_2" d="M124.544 9.27884C124.631 10.1231 124.977 10.707 125.582 11.0304C125.891 11.1949 126.249 11.2771 126.655 11.2771C127.429 11.2771 128.002 10.9975 128.374 10.4383C128.747 9.87915 128.933 9.25965 128.933 8.57985C128.933 7.75751 128.71 7.12156 128.266 6.67201C127.825 6.22247 127.296 5.99769 126.677 5.99769C126.227 5.99769 125.84 6.09637 125.516 6.29374C125.197 6.4911 124.924 6.76521 124.696 7.11608L123.565 7.04207L124.356 0.701804H129.753V2.13268H125.335L124.892 5.40561C125.134 5.19728 125.364 5.04103 125.582 4.93687C125.968 4.75596 126.416 4.6655 126.924 4.6655C127.876 4.6655 128.684 5.01362 129.346 5.70987C130.009 6.40612 130.34 7.28877 130.34 8.35782C130.34 9.47072 130.036 10.4521 129.426 11.3018C128.822 12.1516 127.854 12.5764 126.525 12.5764C125.678 12.5764 124.929 12.3078 124.276 11.7705C123.628 11.2278 123.265 10.3972 123.188 9.27884H124.544Z" fill="black"/>
<path id="Vector_3" d="M120.438 10.4852H121.954V12.2779H120.438V10.4852Z" fill="black"/>
<path id="Vector_4" d="M119.262 0.701804V1.99288C118.929 2.3602 118.484 2.99888 117.928 3.90894C117.376 4.819 116.888 5.80033 116.462 6.85293C116.042 7.87812 115.722 8.81285 115.505 9.65712C115.365 10.1999 115.183 11.0743 114.961 12.2804H113.517C113.846 10.0327 114.571 7.79588 115.693 5.57008C116.356 4.26529 117.052 3.13868 117.783 2.19025H112.037V0.701804H119.262Z" fill="black"/>
<path id="Vector_5" d="M107.998 0C107.238 1.6721 106.745 2.90287 106.518 3.69232C106.174 4.89294 106.003 6.27996 106.003 7.85338C106.003 9.44324 106.199 10.896 106.59 12.2118C106.832 13.0232 107.309 14.1909 108.019 15.715H107.142C106.436 14.465 105.998 13.6673 105.829 13.322C105.659 12.9766 105.476 12.5078 105.277 11.9157C105.007 11.1044 104.818 10.2382 104.712 9.31715C104.658 8.84019 104.632 8.38516 104.632 7.95206C104.632 6.3293 104.857 4.88472 105.306 3.61831C105.592 2.81241 106.187 1.60631 107.091 0H107.998Z" fill="black"/>
<path id="Vector_6" d="M96.5759 3.27334C97.1272 3.27334 97.6616 3.42136 98.1791 3.71741C98.6965 4.00797 99.0907 4.38625 99.3615 4.85224C99.6227 5.29631 99.7968 5.81438 99.8838 6.40647C99.9612 6.81216 99.9999 7.45907 99.9999 8.3472H94.3053C94.3295 9.24081 94.5157 9.95899 94.8639 10.5017C95.2121 11.039 95.7513 11.3076 96.4816 11.3076C97.1635 11.3076 97.7076 11.0527 98.1138 10.5429C98.3459 10.2468 98.5104 9.90417 98.6071 9.51492H99.8911C99.8572 9.83838 99.7436 10.2002 99.5501 10.6004C99.3615 10.9951 99.1487 11.3186 98.9117 11.5708C98.5152 12.0094 98.0243 12.3054 97.4392 12.4589C97.1248 12.5466 96.7693 12.5905 96.3728 12.5905C95.4056 12.5905 94.5858 12.193 93.9136 11.3981C93.2414 10.5977 92.9053 9.47929 92.9053 8.04293C92.9053 6.6285 93.2438 5.47996 93.9209 4.59731C94.5979 3.71467 95.4829 3.27334 96.5759 3.27334ZM98.6579 7.17125C98.6047 6.52982 98.4813 6.01723 98.2879 5.63347C97.93 4.92077 97.3328 4.56442 96.4961 4.56442C95.8964 4.56442 95.3935 4.81112 94.9872 5.30453C94.581 5.79245 94.3658 6.41469 94.3416 7.17125H98.6579Z" fill="black"/>
<path id="Vector_7" d="M86.4791 0.199019H87.734V7.2136L91.0855 3.47194H92.7539L89.7797 6.76954L92.9208 12.2792H91.2523L88.8294 7.83858L87.734 8.97342V12.2792H86.4791V0.199019Z" fill="black"/>
<path id="Vector_8" d="M79.8297 9.93505C79.8297 10.3627 79.9675 10.6998 80.2432 10.9465C80.5189 11.1932 80.8453 11.3166 81.2225 11.3166C81.6819 11.3166 82.1269 11.196 82.5573 10.9548C83.2827 10.5546 83.6454 9.89942 83.6454 8.98936V7.79696C83.4858 7.91209 83.2803 8.00803 83.0288 8.08478C82.7773 8.16153 82.5307 8.21636 82.2889 8.24925L81.4982 8.36438C81.0242 8.43565 80.6688 8.54804 80.4318 8.70154C80.0304 8.95921 79.8297 9.37038 79.8297 9.93505ZM82.9925 6.94173C83.2924 6.89787 83.4931 6.75533 83.5946 6.51411C83.6527 6.38253 83.6817 6.19339 83.6817 5.94669C83.6817 5.44232 83.5221 5.07775 83.2029 4.85297C82.8886 4.62272 82.4364 4.50759 81.8464 4.50759C81.1645 4.50759 80.6809 4.71592 80.3955 5.13257C80.2359 5.36283 80.132 5.70547 80.0836 6.1605H78.8649C78.8891 5.07501 79.1986 4.32119 79.7934 3.89906C80.3931 3.47144 81.0871 3.25763 81.8754 3.25763C82.7894 3.25763 83.5318 3.45499 84.1024 3.84972C84.6682 4.24444 84.9512 4.85846 84.9512 5.69176V10.7656C84.9512 10.9191 84.9778 11.0425 85.031 11.1357C85.089 11.2289 85.2075 11.2755 85.3864 11.2755C85.4444 11.2755 85.5097 11.2727 85.5823 11.2673C85.6548 11.2563 85.7322 11.2426 85.8144 11.2261V12.3198C85.6113 12.3856 85.4565 12.4268 85.3501 12.4432C85.2437 12.4596 85.0987 12.4679 84.9149 12.4679C84.4651 12.4679 84.1387 12.287 83.9356 11.9251C83.8292 11.7332 83.7542 11.4619 83.7107 11.111C83.4447 11.5057 83.0627 11.8484 82.5645 12.1389C82.0664 12.4295 81.5175 12.5748 80.9178 12.5748C80.1973 12.5748 79.6072 12.3281 79.1478 11.8347C78.6932 11.3358 78.4659 10.7135 78.4659 9.96795C78.4659 9.15109 78.6908 8.51788 79.1406 8.06834C79.5903 7.61879 80.1803 7.34193 80.9106 7.23777L82.9925 6.94173Z" fill="black"/>
<path id="Vector_9" d="M74.9944 3.21573C75.8697 3.21573 76.5806 3.45695 77.1271 3.93939C77.6784 4.42183 78.0097 5.2524 78.1209 6.43109H76.8514C76.774 5.88835 76.5975 5.4388 76.3219 5.08245C76.0462 4.72062 75.6037 4.5397 74.9944 4.5397C74.1625 4.5397 73.5677 5.00022 73.2098 5.92124C72.9777 6.51881 72.8616 7.25618 72.8616 8.13334C72.8616 9.01599 73.0261 9.75884 73.3549 10.3619C73.6838 10.9649 74.2012 11.2665 74.9073 11.2665C75.449 11.2665 75.8769 11.0801 76.1913 10.7073C76.5105 10.329 76.7305 9.81366 76.8514 9.16127H78.1209C77.9758 10.329 77.6131 11.1842 77.0328 11.727C76.4524 12.2642 75.7101 12.5329 74.8057 12.5329C73.7902 12.5329 72.9801 12.1135 72.3756 11.2747C71.7711 10.4304 71.4688 9.37782 71.4688 8.11689C71.4688 6.57089 71.8001 5.36753 72.4627 4.50681C73.1252 3.64609 73.9691 3.21573 74.9944 3.21573Z" fill="black"/>
<path id="Vector_10" d="M63.863 11.324C64.7287 11.324 65.3211 10.954 65.6403 10.2139C65.9643 9.46828 66.1263 8.64045 66.1263 7.73039C66.1263 6.90805 66.0102 6.23921 65.7781 5.72388C65.4106 4.9125 64.777 4.50681 63.8775 4.50681C63.0796 4.50681 62.4992 4.85219 62.1365 5.54296C61.7738 6.23373 61.5925 7.06704 61.5925 8.04288C61.5925 8.98036 61.7738 9.76158 62.1365 10.3866C62.4992 11.0115 63.0747 11.324 63.863 11.324ZM63.9138 3.21573C64.9149 3.21573 65.7612 3.59401 66.4528 4.35056C67.1443 5.10712 67.4901 6.22002 67.4901 7.68928C67.4901 9.10919 67.1854 10.2824 66.5761 11.2089C65.9667 12.1354 65.0213 12.5987 63.7397 12.5987C62.6709 12.5987 61.8222 12.1902 61.1935 11.3734C60.5648 10.551 60.2504 9.44909 60.2504 8.06755C60.2504 6.58734 60.5817 5.40865 61.2443 4.53148C61.9068 3.65431 62.7967 3.21573 63.9138 3.21573Z" fill="black"/>
<path id="Vector_11" d="M55.8453 3.31524C56.4547 3.31524 56.9866 3.48519 57.4412 3.82509C57.6879 4.01697 57.9394 4.29657 58.1957 4.66388V3.55372H59.3999V11.5633C59.3999 12.6817 59.2548 13.5644 58.9646 14.2113C58.423 15.4064 57.4001 16.004 55.8961 16.004C55.0595 16.004 54.3558 15.7902 53.7851 15.3626C53.2145 14.9404 52.8953 14.2771 52.8276 13.3725H54.1551C54.218 13.7672 54.3437 14.0715 54.5323 14.2853C54.8273 14.6142 55.2916 14.7787 55.9251 14.7787C56.9262 14.7787 57.5815 14.3785 57.891 13.5781C58.0748 13.1066 58.1594 12.2651 58.1449 11.0535C57.8837 11.503 57.5694 11.8375 57.2019 12.0567C56.8343 12.276 56.3483 12.3857 55.7438 12.3857C54.9023 12.3857 54.1648 12.0485 53.5312 11.3742C52.9025 10.6944 52.5882 9.57327 52.5882 8.01082C52.5882 6.53608 52.905 5.3848 53.5385 4.55698C54.1769 3.72915 54.9458 3.31524 55.8453 3.31524ZM58.1957 7.83813C58.1957 6.74715 57.9974 5.93851 57.6008 5.41221C57.2043 4.88592 56.6989 4.62277 56.0847 4.62277C55.1658 4.62277 54.5372 5.11069 54.1986 6.08654C54.0197 6.60735 53.9302 7.2899 53.9302 8.13417C53.9302 9.12646 54.1067 9.88302 54.4598 10.4038C54.8176 10.9192 55.2964 11.1768 55.8961 11.1768C56.8343 11.1768 57.4944 10.6971 57.8765 9.73774C58.0893 9.19499 58.1957 8.56179 58.1957 7.83813Z" fill="black"/>
<path id="Vector_12" d="M45.4287 3.4707H46.6692V4.72067C47.0368 4.20533 47.4261 3.83528 47.8371 3.6105C48.2482 3.38573 48.7052 3.27334 49.2082 3.27334C50.3108 3.27334 51.0556 3.70918 51.4425 4.58087C51.6552 5.05783 51.7616 5.74037 51.7616 6.6285V12.278H50.4341V6.72718C50.4341 6.18992 50.364 5.75682 50.2238 5.42788C49.9916 4.87965 49.5709 4.60554 48.9615 4.60554C48.652 4.60554 48.3981 4.64117 48.1998 4.71244C47.842 4.83305 47.5276 5.07427 47.2568 5.4361C47.0392 5.72666 46.8965 6.02819 46.8288 6.34068C46.7659 6.64769 46.7345 7.08901 46.7345 7.66465V12.278H45.4287V3.4707Z" fill="black"/>
<path id="Vector_13" d="M38.7532 9.93505C38.7532 10.3627 38.891 10.6998 39.1667 10.9465C39.4423 11.1932 39.7688 11.3166 40.146 11.3166C40.6054 11.3166 41.0504 11.196 41.4808 10.9548C42.2062 10.5546 42.5689 9.89942 42.5689 8.98936V7.79696C42.4093 7.91209 42.2038 8.00803 41.9523 8.08478C41.7008 8.16153 41.4542 8.21636 41.2124 8.24925L40.4217 8.36438C39.9477 8.43565 39.5923 8.54804 39.3553 8.70154C38.9539 8.95921 38.7532 9.37038 38.7532 9.93505ZM41.916 6.94173C42.2159 6.89787 42.4166 6.75533 42.5181 6.51411C42.5761 6.38253 42.6052 6.19339 42.6052 5.94669C42.6052 5.44232 42.4456 5.07775 42.1264 4.85297C41.812 4.62272 41.3599 4.50759 40.7699 4.50759C40.088 4.50759 39.6044 4.71592 39.319 5.13257C39.1594 5.36283 39.0555 5.70547 39.0071 6.1605H37.7884C37.8126 5.07501 38.1221 4.32119 38.7169 3.89906C39.3166 3.47144 40.0106 3.25763 40.7989 3.25763C41.7129 3.25763 42.4552 3.45499 43.0259 3.84972C43.5917 4.24444 43.8746 4.85846 43.8746 5.69176V10.7656C43.8746 10.9191 43.9012 11.0425 43.9544 11.1357C44.0125 11.2289 44.131 11.2755 44.3099 11.2755C44.3679 11.2755 44.4332 11.2727 44.5058 11.2673C44.5783 11.2563 44.6557 11.2426 44.7379 11.2261V12.3198C44.5348 12.3856 44.38 12.4268 44.2736 12.4432C44.1672 12.4596 44.0221 12.4679 43.8384 12.4679C43.3886 12.4679 43.0622 12.287 42.8591 11.9251C42.7527 11.7332 42.6777 11.4619 42.6342 11.111C42.3682 11.5057 41.9861 11.8484 41.488 12.1389C40.9899 12.4295 40.441 12.5748 39.8413 12.5748C39.1207 12.5748 38.5307 12.3281 38.0713 11.8347C37.6167 11.3358 37.3894 10.7135 37.3894 9.96795C37.3894 9.15109 37.6143 8.51788 38.0641 8.06834C38.5138 7.61879 39.1038 7.34193 39.8341 7.23777L41.916 6.94173Z" fill="black"/>
<path id="Vector_14" d="M25.972 3.4707H27.2632V4.72067C27.5728 4.28756 27.8533 3.97233 28.1047 3.77497C28.5351 3.44055 29.0236 3.27334 29.5701 3.27334C30.1891 3.27334 30.6872 3.44603 31.0644 3.79142C31.2772 3.98878 31.4707 4.27934 31.6448 4.6631C31.9349 4.19162 32.2759 3.8435 32.6676 3.61873C33.0593 3.38847 33.4994 3.27334 33.9879 3.27334C35.0325 3.27334 35.7434 3.70096 36.1206 4.5562C36.3237 5.01671 36.4253 5.63621 36.4253 6.41469V12.278H35.0687V6.15977C35.0687 5.57316 34.9382 5.17021 34.677 4.95092C34.4207 4.73163 34.1063 4.62198 33.734 4.62198C33.2213 4.62198 32.7788 4.81661 32.4065 5.20585C32.0389 5.59509 31.8551 6.24474 31.8551 7.1548V12.278H30.5276V6.52982C30.5276 5.93225 30.4648 5.49641 30.339 5.22229C30.1407 4.81112 29.7708 4.60554 29.2291 4.60554C28.7358 4.60554 28.2861 4.82209 27.8798 5.25519C27.4785 5.68829 27.2778 6.47226 27.2778 7.60709V12.278H25.972V3.4707Z" fill="black"/>
<path id="Vector_15" d="M19.7186 3.51306H21.0461V12.2792H19.7186V3.51306ZM19.7186 0.199019H21.0461V1.8766H19.7186V0.199019Z" fill="black"/>
<path id="Vector_16" d="M10.1807 3.47236L11.675 10.4129L13.1912 3.47236H14.6565L16.1799 10.3718L17.7685 3.47236H19.0743L16.8182 12.2797H15.4617L13.8803 5.46243L12.3497 12.2797H10.9931L8.75161 3.47236H10.1807Z" fill="black"/>
<path id="Vector_17" d="M6.86092 3.51306H8.18844V12.2792H6.86092V3.51306ZM6.86092 0.199019H8.18844V1.8766H6.86092V0.199019Z" fill="black"/>
<path id="Vector_18" d="M0 0.199019H1.25497V7.2136L4.6064 3.47194H6.27486L3.30065 6.76954L6.44171 12.2792H4.77325L2.35035 7.83858L1.25497 8.97342V12.2792H0V0.199019Z" fill="black"/>
</g>
</svg>
