<svg preserveAspectRatio="none" overflow="visible" style="display: block;" width="61.6346" height="13.4973" viewBox="0 0 61.6346 13.4973" fill="none" xmlns="http://www.w3.org/2000/svg">
<g id="&#226;&#153;&#165; - 12cm">
<path id="Vector" d="M49.8593 3.6595H50.8172V5.27438H50.8668C51.142 4.6804 51.4998 4.21635 51.9402 3.88224C52.3916 3.54813 52.9642 3.38107 53.6578 3.38107C54.2193 3.38107 54.7258 3.53575 55.1772 3.84512C55.6396 4.15448 55.9479 4.62471 56.102 5.25582C56.3553 4.62471 56.7296 4.15448 57.2251 3.84512C57.7205 3.53575 58.249 3.38107 58.8105 3.38107C60.6932 3.38107 61.6346 4.50097 61.6346 6.74077V13.2374H60.5941V6.79646C60.5941 6.00448 60.4455 5.40431 60.1482 4.99595C59.851 4.57522 59.328 4.36485 58.5793 4.36485C58.1279 4.36485 57.7535 4.46385 57.4563 4.66184C57.159 4.84746 56.9223 5.10114 56.7461 5.42288C56.57 5.74462 56.4433 6.11585 56.3663 6.53659C56.3002 6.94495 56.2672 7.37187 56.2672 7.81736V13.2374H55.2267V6.74077C55.2267 6.41903 55.1937 6.11585 55.1276 5.83124C55.0726 5.53425 54.9735 5.28057 54.8304 5.0702C54.6982 4.84746 54.5166 4.67421 54.2854 4.55047C54.0542 4.42672 53.7734 4.36485 53.4431 4.36485C53.0027 4.36485 52.6174 4.45766 52.287 4.64328C51.9678 4.81652 51.7035 5.06401 51.4943 5.38575C51.2961 5.69512 51.1475 6.06635 51.0484 6.49947C50.9493 6.9202 50.8998 7.38425 50.8998 7.89161V13.2374H49.8593V3.6595Z" fill="black"/>
<path id="Vector_2" d="M48.1331 6.66652C47.99 5.9488 47.7257 5.38575 47.3404 4.97739C46.955 4.56903 46.4155 4.36485 45.7219 4.36485C45.2264 4.36485 44.7916 4.48241 44.4172 4.71752C44.0429 4.95264 43.7291 5.26201 43.4759 5.64562C43.2336 6.02923 43.0465 6.46853 42.9143 6.96351C42.7932 7.44612 42.7327 7.9411 42.7327 8.44846C42.7327 8.95582 42.7932 9.45699 42.9143 9.95198C43.0465 10.4346 43.2336 10.8677 43.4759 11.2513C43.7291 11.6349 44.0429 11.9443 44.4172 12.1794C44.7916 12.4145 45.2264 12.5321 45.7219 12.5321C46.0412 12.5321 46.344 12.464 46.6302 12.3279C46.9165 12.1918 47.1697 12.0062 47.3899 11.771C47.6101 11.5236 47.7918 11.2327 47.9349 10.8986C48.0781 10.5645 48.1661 10.1995 48.1992 9.80348H49.2396C49.0965 10.9667 48.7166 11.8762 48.1001 12.5321C47.4835 13.1756 46.6908 13.4973 45.7219 13.4973C45.0723 13.4973 44.4943 13.3674 43.9878 13.1075C43.4924 12.8353 43.074 12.4702 42.7327 12.0123C42.3914 11.5545 42.1326 11.0224 41.9565 10.416C41.7803 9.79729 41.6922 9.14144 41.6922 8.44846C41.6922 7.75549 41.7803 7.10582 41.9565 6.49947C42.1326 5.88074 42.3914 5.34244 42.7327 4.88458C43.074 4.42672 43.4924 4.06167 43.9878 3.78943C44.4943 3.51719 45.0723 3.38107 45.7219 3.38107C46.6357 3.38107 47.4064 3.65331 48.034 4.19779C48.6726 4.74227 49.0524 5.56518 49.1736 6.66652H48.1331Z" fill="black"/>
<path id="Vector_3" d="M40.9844 13.2361H33.3709C33.3819 12.5926 33.481 12.0233 33.6682 11.5284C33.8554 11.0334 34.1031 10.5879 34.4114 10.1919C34.7196 9.79592 35.0665 9.43705 35.4518 9.11531C35.8372 8.7812 36.2335 8.46565 36.6409 8.16866C37.0483 7.85929 37.4501 7.54993 37.8465 7.24056C38.2539 6.91882 38.6172 6.57852 38.9365 6.21966C39.2558 5.86079 39.4925 5.49574 39.6466 5.12451C39.8118 4.74089 39.8944 4.28922 39.8944 3.76949C39.8944 3.34875 39.8228 2.97752 39.6797 2.65578C39.5476 2.32166 39.3604 2.04323 39.1182 1.82049C38.8869 1.58537 38.6117 1.41213 38.2924 1.30076C37.9841 1.17701 37.6538 1.11514 37.3015 1.11514C36.8281 1.11514 36.4207 1.21414 36.0794 1.41213C35.7491 1.61012 35.4793 1.87618 35.2701 2.21029C35.061 2.5444 34.9068 2.92802 34.8077 3.36113C34.7196 3.79424 34.6811 4.2521 34.6921 4.73471H33.6517C33.6407 4.06648 33.7067 3.45394 33.8499 2.89708C34.004 2.32785 34.2352 1.83905 34.5435 1.43069C34.8518 1.02233 35.2371 0.706778 35.6995 0.484035C36.173 0.248918 36.7235 0.131359 37.351 0.131359C37.8575 0.131359 38.3254 0.211794 38.7548 0.372664C39.1952 0.521158 39.5751 0.750089 39.8944 1.05945C40.2247 1.35644 40.4779 1.73387 40.6541 2.19173C40.8412 2.64959 40.9348 3.1817 40.9348 3.78805C40.9348 4.33253 40.8522 4.82752 40.6871 5.273C40.5329 5.71849 40.3183 6.12685 40.043 6.49809C39.7788 6.86932 39.4705 7.21581 39.1182 7.53755C38.7768 7.84692 38.4135 8.13772 38.0282 8.40996C37.7529 8.62033 37.4281 8.85545 37.0538 9.11531C36.6794 9.36281 36.3161 9.64123 35.9638 9.9506C35.6225 10.26 35.3197 10.6003 35.0554 10.9715C34.7912 11.3304 34.6261 11.7264 34.56 12.1595H40.9844V13.2361Z" fill="black"/>
<path id="Vector_4" d="M26.0262 2.75144C26.4776 2.73906 26.885 2.71432 27.2483 2.67719C27.6227 2.62769 27.942 2.52251 28.2062 2.36164C28.4815 2.20077 28.7072 1.95947 28.8833 1.63773C29.0705 1.30361 29.2026 0.839565 29.2797 0.245584H30.122V13.2389H29.0815V3.58672H26.0262V2.75144Z" fill="black"/>
<path id="Vector_5" d="M16.3571 8.66971V7.59312H20.4858V8.66971H16.3571Z" fill="black"/>
<path id="Vector_6" d="M10.8669 3.43395C10.8669 4.22592 10.6908 5.09215 10.3384 6.03261C9.99712 6.96071 9.54021 7.87643 8.96768 8.77977C8.39516 9.68312 7.81713 10.506 7.2336 11.2485C6.66108 11.991 6.06103 12.7025 5.43346 13.3831C4.80589 12.7149 4.20033 12.0095 3.6168 11.2671C3.03327 10.5122 2.45524 9.68312 1.88272 8.77977C1.32121 7.87643 0.864289 6.96071 0.511967 6.03261C0.170656 5.09215 0 4.22592 0 3.43395C0 2.45636 0.264241 1.63963 0.792723 0.98378C1.32121 0.327927 1.9708 0 2.7415 0C4.11776 0 5.01508 1.05184 5.43346 3.15552C5.85184 1.05184 6.74365 0 8.1089 0C8.8796 0 9.5292 0.327927 10.0577 0.98378C10.5972 1.63963 10.8669 2.45636 10.8669 3.43395Z" fill="black"/>
</g>
</svg>
